inDegrees=no
num_controls=7
num_derivatives=13
num_iterations=110
num_multipliers=7
num_parameters=0
num_slacks=7
num_states=26
objective=0.465629
objective_accelerations=0.001327
objective_balance=0.001876
objective_effort=0.003745
objective_height=0.447080
objective_ligament=0.011602
solver_duration=1596.474075
status=Solve_Succeeded
success=true
DataType=double
version=3
OpenSimVersion=4.5
endheader
time	/jointset/ground_pelvis/pelvis_tilt/value	/jointset/ground_pelvis/pelvis_tx/value	/jointset/ground_pelvis/pelvis_ty/value	/jointset/hip_l/hip_flexion_l/value	/jointset/hip_l/hip_adduction_l/value	/jointset/hip_l/hip_rotation_l/value	/jointset/back/lumbar_extension/value	/jointset/patellofemoral_l/patellar_flexion_l/value	/jointset/knee_l/knee_flexion_l/value	/jointset/knee_l/knee_adduction_l/value	/jointset/knee_l/knee_rotation_l/value	/jointset/ankle_l/ankle_angle_l/value	/jointset/subtalar_l/subtalar_angle_l/value	/jointset/ground_pelvis/pelvis_tilt/speed	/jointset/ground_pelvis/pelvis_tx/speed	/jointset/ground_pelvis/pelvis_ty/speed	/jointset/hip_l/hip_flexion_l/speed	/jointset/hip_l/hip_adduction_l/speed	/jointset/hip_l/hip_rotation_l/speed	/jointset/back/lumbar_extension/speed	/jointset/patellofemoral_l/patellar_flexion_l/speed	/jointset/knee_l/knee_flexion_l/speed	/jointset/knee_l/knee_adduction_l/speed	/jointset/knee_l/knee_rotation_l/speed	/jointset/ankle_l/ankle_angle_l/speed	/jointset/subtalar_l/subtalar_angle_l/speed	/forceset/tau_hip_flexion_l	/forceset/tau_hip_adduction_l	/forceset/tau_hip_rotation_l	/forceset/tau_knee_flexion_l	/forceset/tau_ankle_angle_l	/forceset/tau_subtalar_angle_l	/forceset/tau_lumbar_extension	lambda_cid13_p0	lambda_cid13_p1	lambda_cid13_p2	lambda_cid13_p3	lambda_cid13_p4	lambda_cid13_p5	lambda_cid14_p0	/jointset/ground_pelvis/pelvis_tilt/accel	/jointset/ground_pelvis/pelvis_tx/accel	/jointset/ground_pelvis/pelvis_ty/accel	/jointset/hip_l/hip_flexion_l/accel	/jointset/hip_l/hip_adduction_l/accel	/jointset/hip_l/hip_rotation_l/accel	/jointset/back/lumbar_extension/accel	/jointset/patellofemoral_l/patellar_flexion_l/accel	/jointset/knee_l/knee_flexion_l/accel	/jointset/knee_l/knee_adduction_l/accel	/jointset/knee_l/knee_rotation_l/accel	/jointset/ankle_l/ankle_angle_l/accel	/jointset/subtalar_l/subtalar_angle_l/accel	gamma_cid13_p0	gamma_cid13_p1	gamma_cid13_p2	gamma_cid13_p3	gamma_cid13_p4	gamma_cid13_p5	gamma_cid14_p0
0	-0.04636670036304212	0.07194366633635933	0.8962317431719501	0.1955287580552426	-0.3189553625693063	-0.5424439437838032	-0.1379045077516729	0.07015288079085313	0.07015288079084844	-0.17452582387112	-0.1739796496438628	-0.06701059314715049	0.007759928582613105	0	0	0	0	0	0	0	0	0	0	0	0	0	0.07176337428810832	-0.06765180086273985	-0.04236699564423798	-0.2512082782254542	0.2766073892486128	-0.04927659030630477	-0.009181196342415775	50.53469973616767	6.573213632727239	5.445988220002418	-39.54771336084369	-546.6682325158062	-55.29011407995658	-41.55696101183712	-0.6291756094471818	0.5013486663345172	-0.02594564538966555	0.1423452377475136	-0.09913287913617728	0.04891006847917474	-0.7328502251439978	0.2441921223152602	0.2441921223152652	-0.05575484835219437	0.04139192569540535	0.6990561701279527	0.2759866520438335	2.912294925143058e-09	1.112001016492346e-08	-4.128758719344194e-09	2.274017917461767e-09	2.107719338060939e-08	1.814857960240344e-08	7.433510917927035e-10
0.01	-0.04639498371231693	0.07196610683087665	0.8962305220374532	0.1955359305841805	-0.3189599678355146	-0.5424412399525611	-0.1379389281204572	0.07016497983488003	0.07016497983472492	-0.1745279679166687	-0.173977723195064	-0.06697868857275981	0.007772431894366954	-0.005349781500399323	0.004224741818228916	-0.0002384455898466209	0.001468326538079127	-0.0008876185270113412	0.0005568261994409948	-0.006653910015551659	0.002437572559229681	0.002437572559228827	-0.0003530015625858817	0.0003511235452134067	0.006088938649026795	0.002376413652366832	0.0558881180869365	-0.05572107454186314	-0.03762675559433953	-0.2174507999196063	0.2263261739363561	-0.03774687077095724	0.002283477371504554	34.84285440930876	4.087425110729467	6.100391273345664	-28.26848655720509	-546.3214758947144	-60.22522325224224	-41.55708294768262	-0.4418462586749258	0.3435338304145035	-0.02192260388849086	0.1541496402078569	-0.07856070761570055	0.06147871890853824	-0.5971368279255665	0.2462042390850881	0.2462042390849182	-0.01370137725356673	0.02684675083420617	0.5200166932260941	0.1998300947367095	1.36013140754829e-09	5.229435477808996e-09	-1.938315660212345e-09	1.016549303947318e-09	9.731778272830723e-09	8.342855950550332e-09	3.653244930252696e-10
0.02	-0.04646755824428177	0.07202289412174501	0.8962270907294381	0.1955588010342674	-0.3189724461606027	-0.5424324858947048	-0.1380329826770044	0.07020198748764606	0.07020198748764739	-0.1745313676913825	-0.1739733106746082	-0.06689465381569019	0.007804971617224791	-0.008858236534260478	0.006869359270205649	-0.0004420347036435345	0.003139584210961884	-0.001574611779281721	0.001210045328138622	-0.01192683755762473	0.00498172177278382	0.004981721772782748	-0.0002511458068669103	0.0004972143664336276	0.0104260365354857	0.004007282220863328	0.04001286188692261	-0.04379034822113556	-0.03288651554295696	-0.1836933216135216	0.1760449586241894	-0.02621715123573778	0.01374815108638141	19.15366136417472	1.601437347194121	6.754523239145768	-17.01783176284689	-545.9511718546298	-65.15553112776965	-41.55758934183117	-0.2609103161390301	0.1853237930836632	-0.01897435017971302	0.1829314647082542	-0.05900782418793837	0.06818865433049263	-0.456653730447917	0.26550745318018	0.2655074531803119	0.03521661530887851	0.0003853808966814316	0.3486880176139094	0.1268776352695618	-1.920321100464788e-10	-6.611392093054641e-10	2.521273989195049e-10	-2.409193095671307e-10	-1.613636834947945e-09	-1.46286770130278e-09	-1.270210574216427e-11
0.03	-0.04656941945799249	0.07210119474504252	0.8962217360825492	0.1955989109995708	-0.3189911768353362	-0.5424168644444564	-0.13817524030849	0.07026468706853577	0.07026468706857998	-0.1745323921792186	-0.1739680140011328	-0.06677275874134458	0.007851460677225796	-0.01154882453224156	0.008824123112204414	-0.0006293898234582122	0.004866669287191082	-0.002177974049353543	0.001915847608360347	-0.01653067723358979	0.007546032011581634	0.007546032011583254	2.625878283950281e-05	0.0005735243799804433	0.01398430498549667	0.005300802532796542	0.04152917085390988	-0.04523690180080423	-0.0333577722935163	-0.1871135718826637	0.1810469554477345	-0.02712571793590804	0.01269054149152399	20.72579540057294	1.753068580499541	6.693443287952158	-18.25858682173059	-546.0138101659581	-64.86267570426594	-41.55857956238637	-0.2783557994454227	0.2055562838598061	-0.01869073383533653	0.1652360620745142	-0.06196814520540251	0.07201640067214622	-0.4631473592080541	0.2500684528388462	0.250068452839199	0.02100397335191757	0.01296446549462394	0.3640952266005958	0.1321302339610473	-1.09572400748146e-10	6.265641765334676e-12	1.706134397027092e-10	-8.639176819439322e-11	-6.848693163856984e-10	-6.170370441721628e-10	1.543686260322836e-11
0.04	-0.04669923110327415	0.0722000437275794	0.8962144929562736	0.195655819622224	-0.3190161346761206	-0.5423941368942469	-0.13836371599135	0.07035266488063439	0.07035266488063568	-0.174531242302658	-0.1739616120966185	-0.06661434118891854	0.00791119314130688	-0.01444832284290644	0.01097903111807758	-0.0008197305809945733	0.006499315683164497	-0.002820044990981486	0.002631265320751468	-0.02117044783097801	0.01003736799474853	0.01003736799475218	0.0001837270745563263	0.0007182605499522405	0.01773053215173672	0.006655963036956968	0.04304547982105911	-0.04668345538048102	-0.0338290290447737	-0.1905338221515188	0.1860489522713741	-0.02803428463602817	0.01163293189669844	22.30027009328622	1.904866139131838	6.631678711263926	-19.51892183988232	-546.0514686880977	-64.56385668241363	-41.55998670677521	-0.3026923786753219	0.2253526258581605	-0.01957147772404103	0.1640437286570973	-0.06674955849913901	0.07011174076436523	-0.4638399147322099	0.2509126020540204	0.2509126020540192	0.01122935571100794	0.0140706121815999	0.3862797608592922	0.1392056737147909	6.59088023870436e-12	8.088865657884091e-10	4.225500588078672e-11	9.724909595952382e-11	4.969741326165654e-10	4.484132894323457e-10	5.195037872414324e-11
0.05	-0.04685849799280747	0.07232091390418335	0.8962053419445369	0.1957286407892744	-0.3190476436547071	-0.5423643548340163	-0.138598310957381	0.07046518511316438	0.07046518511309616	-0.1745290213168466	-0.1739536475220431	-0.06641814819407303	0.0079845115904199	-0.01738070968206782	0.01317554948653296	-0.001009793820656098	0.008053756259651382	-0.003481591605166407	0.003313772965674987	-0.02570943494162021	0.01245273511470712	0.01245273511470837	0.0002503354540475995	0.0008655264173781966	0.0214764474924633	0.007990753561570895	0.04138159147475355	-0.0422726611862271	-0.03338538167306333	-0.1872078080513825	0.1827245104593964	-0.02982552899492216	0.01287522161853492	21.16796546929839	2.776739296999084	6.611839785231822	-18.51688664536072	-546.0436244207555	-62.46364886283389	-41.56177554428728	-0.2848600723468939	0.2138832548895035	-0.01862194628038331	0.1494699633202017	-0.06583343334631922	0.06561424045738851	-0.4430615433132203	0.2347572478971252	0.2347572478968533	0.002856502622873973	0.0136853458538369	0.3640045363359345	0.1280696203581337	-6.021890621858995e-11	3.9953556717796e-10	2.578872753313866e-10	2.279731282769147e-11	2.627811444883971e-10	-3.121921870547791e-11	7.482714921891771e-13
